<mxfile host="app.diagrams.net" modified="2022-03-30T10:17:46.389Z" agent="5.0 (Windows NT 10.0; Win64; x64) AppleWebKit/537.36 (KHTML, like Gecko) Chrome/99.0.4844.74 Safari/537.36 Edg/99.0.1150.55" etag="pbrxQl4xc6Qpnyw_nTIt" version="17.2.4" type="github">
  <diagram id="MYQFxudGDhmTdoFLmUG1" name="Page-1">
    <mxGraphModel dx="868" dy="442" grid="1" gridSize="10" guides="1" tooltips="1" connect="1" arrows="1" fold="1" page="1" pageScale="1" pageWidth="1600" pageHeight="900" math="0" shadow="0">
      <root>
        <mxCell id="0" />
        <mxCell id="1" parent="0" />
        <mxCell id="GoyC5QAHnLf5jNGfdJ2Q-1" style="edgeStyle=orthogonalEdgeStyle;rounded=0;orthogonalLoop=1;jettySize=auto;html=1;exitX=0;exitY=0;exitDx=0;exitDy=0;endArrow=none;endFill=0;fillColor=#000000;" parent="1" source="GoyC5QAHnLf5jNGfdJ2Q-4" target="GoyC5QAHnLf5jNGfdJ2Q-14" edge="1">
          <mxGeometry relative="1" as="geometry" />
        </mxCell>
        <mxCell id="GoyC5QAHnLf5jNGfdJ2Q-2" style="edgeStyle=orthogonalEdgeStyle;rounded=0;orthogonalLoop=1;jettySize=auto;html=1;exitX=1;exitY=0;exitDx=0;exitDy=0;entryX=0.5;entryY=1;entryDx=0;entryDy=0;endArrow=none;endFill=0;fillColor=#000000;" parent="1" source="GoyC5QAHnLf5jNGfdJ2Q-4" target="GoyC5QAHnLf5jNGfdJ2Q-18" edge="1">
          <mxGeometry relative="1" as="geometry" />
        </mxCell>
        <mxCell id="GoyC5QAHnLf5jNGfdJ2Q-3" style="edgeStyle=orthogonalEdgeStyle;rounded=0;orthogonalLoop=1;jettySize=auto;html=1;exitX=1;exitY=0.25;exitDx=0;exitDy=0;entryX=0.5;entryY=1;entryDx=0;entryDy=0;endArrow=none;endFill=0;fillColor=#000000;" parent="1" source="GoyC5QAHnLf5jNGfdJ2Q-4" target="GoyC5QAHnLf5jNGfdJ2Q-21" edge="1">
          <mxGeometry relative="1" as="geometry" />
        </mxCell>
        <mxCell id="GoyC5QAHnLf5jNGfdJ2Q-74" style="edgeStyle=orthogonalEdgeStyle;rounded=0;orthogonalLoop=1;jettySize=auto;html=1;exitX=0;exitY=0.5;exitDx=0;exitDy=0;entryX=0.5;entryY=0;entryDx=0;entryDy=0;endArrow=none;endFill=0;" parent="1" source="GoyC5QAHnLf5jNGfdJ2Q-4" target="GoyC5QAHnLf5jNGfdJ2Q-45" edge="1">
          <mxGeometry relative="1" as="geometry" />
        </mxCell>
        <mxCell id="GoyC5QAHnLf5jNGfdJ2Q-4" value="Utente" style="whiteSpace=wrap;html=1;align=center;" parent="1" vertex="1">
          <mxGeometry x="590" y="135" width="100" height="40" as="geometry" />
        </mxCell>
        <mxCell id="GoyC5QAHnLf5jNGfdJ2Q-5" value="" style="shape=flexArrow;endArrow=classic;html=1;rounded=0;entryX=0.5;entryY=1;entryDx=0;entryDy=0;fillColor=#000000;" parent="1" target="GoyC5QAHnLf5jNGfdJ2Q-4" edge="1">
          <mxGeometry width="50" height="50" relative="1" as="geometry">
            <mxPoint x="640" y="215" as="sourcePoint" />
            <mxPoint x="660" y="195" as="targetPoint" />
          </mxGeometry>
        </mxCell>
        <mxCell id="GoyC5QAHnLf5jNGfdJ2Q-6" value="" style="endArrow=none;html=1;rounded=0;fillColor=#000000;" parent="1" edge="1">
          <mxGeometry width="50" height="50" relative="1" as="geometry">
            <mxPoint x="560" y="215" as="sourcePoint" />
            <mxPoint x="720" y="215" as="targetPoint" />
          </mxGeometry>
        </mxCell>
        <mxCell id="GoyC5QAHnLf5jNGfdJ2Q-7" style="edgeStyle=orthogonalEdgeStyle;rounded=0;orthogonalLoop=1;jettySize=auto;html=1;exitX=0.5;exitY=0;exitDx=0;exitDy=0;fillColor=#000000;endArrow=none;endFill=0;" parent="1" source="GoyC5QAHnLf5jNGfdJ2Q-8" edge="1">
          <mxGeometry relative="1" as="geometry">
            <mxPoint x="560" y="215" as="targetPoint" />
          </mxGeometry>
        </mxCell>
        <mxCell id="GoyC5QAHnLf5jNGfdJ2Q-73" style="edgeStyle=orthogonalEdgeStyle;rounded=0;orthogonalLoop=1;jettySize=auto;html=1;exitX=0.5;exitY=1;exitDx=0;exitDy=0;entryX=0.5;entryY=0;entryDx=0;entryDy=0;endArrow=none;endFill=0;" parent="1" source="GoyC5QAHnLf5jNGfdJ2Q-8" target="GoyC5QAHnLf5jNGfdJ2Q-43" edge="1">
          <mxGeometry relative="1" as="geometry">
            <mxPoint x="560" y="320" as="targetPoint" />
          </mxGeometry>
        </mxCell>
        <mxCell id="GoyC5QAHnLf5jNGfdJ2Q-8" value="Nuotatore Libero" style="whiteSpace=wrap;html=1;align=center;" parent="1" vertex="1">
          <mxGeometry x="510" y="245" width="100" height="40" as="geometry" />
        </mxCell>
        <mxCell id="GoyC5QAHnLf5jNGfdJ2Q-9" style="edgeStyle=orthogonalEdgeStyle;rounded=0;orthogonalLoop=1;jettySize=auto;html=1;exitX=0.5;exitY=0;exitDx=0;exitDy=0;endArrow=none;endFill=0;fillColor=#000000;" parent="1" source="GoyC5QAHnLf5jNGfdJ2Q-11" edge="1">
          <mxGeometry relative="1" as="geometry">
            <mxPoint x="720" y="215" as="targetPoint" />
          </mxGeometry>
        </mxCell>
        <mxCell id="GoyC5QAHnLf5jNGfdJ2Q-11" value="Iscritto ai Corsi" style="whiteSpace=wrap;html=1;align=center;" parent="1" vertex="1">
          <mxGeometry x="670" y="245" width="100" height="40" as="geometry" />
        </mxCell>
        <mxCell id="GoyC5QAHnLf5jNGfdJ2Q-14" value="" style="ellipse;whiteSpace=wrap;html=1;aspect=fixed;fillColor=#000000;" parent="1" vertex="1">
          <mxGeometry x="585" y="95" width="10" height="10" as="geometry" />
        </mxCell>
        <mxCell id="GoyC5QAHnLf5jNGfdJ2Q-15" value="" style="edgeStyle=orthogonalEdgeStyle;rounded=0;orthogonalLoop=1;jettySize=auto;html=1;endArrow=none;endFill=0;fillColor=#000000;" parent="1" source="GoyC5QAHnLf5jNGfdJ2Q-16" target="GoyC5QAHnLf5jNGfdJ2Q-4" edge="1">
          <mxGeometry relative="1" as="geometry" />
        </mxCell>
        <mxCell id="GoyC5QAHnLf5jNGfdJ2Q-16" value="" style="ellipse;whiteSpace=wrap;html=1;aspect=fixed;" parent="1" vertex="1">
          <mxGeometry x="635" y="95" width="10" height="10" as="geometry" />
        </mxCell>
        <mxCell id="GoyC5QAHnLf5jNGfdJ2Q-17" value="CF_U" style="text;html=1;align=center;verticalAlign=middle;resizable=0;points=[];autosize=1;strokeColor=none;fillColor=none;" parent="1" vertex="1">
          <mxGeometry x="565" y="70" width="50" height="20" as="geometry" />
        </mxCell>
        <mxCell id="GoyC5QAHnLf5jNGfdJ2Q-18" value="" style="ellipse;whiteSpace=wrap;html=1;aspect=fixed;" parent="1" vertex="1">
          <mxGeometry x="685" y="95" width="10" height="10" as="geometry" />
        </mxCell>
        <mxCell id="GoyC5QAHnLf5jNGfdJ2Q-19" value="Nome_U" style="text;html=1;align=center;verticalAlign=middle;resizable=0;points=[];autosize=1;strokeColor=none;fillColor=none;" parent="1" vertex="1">
          <mxGeometry x="610" y="70" width="60" height="20" as="geometry" />
        </mxCell>
        <mxCell id="GoyC5QAHnLf5jNGfdJ2Q-20" value="Indirizzo" style="text;html=1;align=center;verticalAlign=middle;resizable=0;points=[];autosize=1;strokeColor=none;fillColor=none;" parent="1" vertex="1">
          <mxGeometry x="660" y="70" width="60" height="20" as="geometry" />
        </mxCell>
        <mxCell id="GoyC5QAHnLf5jNGfdJ2Q-21" value="" style="ellipse;whiteSpace=wrap;html=1;aspect=fixed;" parent="1" vertex="1">
          <mxGeometry x="740" y="95" width="10" height="10" as="geometry" />
        </mxCell>
        <mxCell id="GoyC5QAHnLf5jNGfdJ2Q-22" value="" style="ellipse;whiteSpace=wrap;html=1;aspect=fixed;" parent="1" vertex="1">
          <mxGeometry x="715" y="40" width="10" height="10" as="geometry" />
        </mxCell>
        <mxCell id="GoyC5QAHnLf5jNGfdJ2Q-23" value="" style="ellipse;whiteSpace=wrap;html=1;aspect=fixed;" parent="1" vertex="1">
          <mxGeometry x="760" y="40" width="10" height="10" as="geometry" />
        </mxCell>
        <mxCell id="GoyC5QAHnLf5jNGfdJ2Q-24" value="" style="endArrow=none;html=1;rounded=0;fillColor=#000000;exitX=0.5;exitY=0;exitDx=0;exitDy=0;entryX=0.5;entryY=1;entryDx=0;entryDy=0;" parent="1" source="GoyC5QAHnLf5jNGfdJ2Q-21" target="GoyC5QAHnLf5jNGfdJ2Q-23" edge="1">
          <mxGeometry width="50" height="50" relative="1" as="geometry">
            <mxPoint x="710" y="100" as="sourcePoint" />
            <mxPoint x="760" y="50" as="targetPoint" />
          </mxGeometry>
        </mxCell>
        <mxCell id="GoyC5QAHnLf5jNGfdJ2Q-25" value="" style="endArrow=none;html=1;rounded=0;fillColor=#000000;exitX=0.5;exitY=0;exitDx=0;exitDy=0;" parent="1" source="GoyC5QAHnLf5jNGfdJ2Q-21" edge="1">
          <mxGeometry width="50" height="50" relative="1" as="geometry">
            <mxPoint x="705" y="95" as="sourcePoint" />
            <mxPoint x="720" y="50" as="targetPoint" />
          </mxGeometry>
        </mxCell>
        <mxCell id="GoyC5QAHnLf5jNGfdJ2Q-26" value="Tipo" style="text;html=1;align=center;verticalAlign=middle;resizable=0;points=[];autosize=1;strokeColor=none;fillColor=none;" parent="1" vertex="1">
          <mxGeometry x="700" y="20" width="40" height="20" as="geometry" />
        </mxCell>
        <mxCell id="GoyC5QAHnLf5jNGfdJ2Q-27" value="(1,n)" style="text;html=1;align=center;verticalAlign=middle;resizable=0;points=[];autosize=1;strokeColor=none;fillColor=none;" parent="1" vertex="1">
          <mxGeometry x="695" y="125" width="40" height="20" as="geometry" />
        </mxCell>
        <mxCell id="GoyC5QAHnLf5jNGfdJ2Q-28" value="Recapito" style="text;html=1;align=center;verticalAlign=middle;resizable=0;points=[];autosize=1;strokeColor=none;fillColor=none;" parent="1" vertex="1">
          <mxGeometry x="740" y="20" width="60" height="20" as="geometry" />
        </mxCell>
        <mxCell id="GoyC5QAHnLf5jNGfdJ2Q-29" style="edgeStyle=orthogonalEdgeStyle;rounded=0;orthogonalLoop=1;jettySize=auto;html=1;exitX=0;exitY=0;exitDx=0;exitDy=0;entryX=0.5;entryY=1;entryDx=0;entryDy=0;endArrow=none;endFill=0;fillColor=#000000;" parent="1" source="GoyC5QAHnLf5jNGfdJ2Q-32" target="GoyC5QAHnLf5jNGfdJ2Q-50" edge="1">
          <mxGeometry relative="1" as="geometry" />
        </mxCell>
        <mxCell id="GoyC5QAHnLf5jNGfdJ2Q-30" style="edgeStyle=orthogonalEdgeStyle;rounded=0;orthogonalLoop=1;jettySize=auto;html=1;exitX=0.25;exitY=0;exitDx=0;exitDy=0;entryX=0.5;entryY=1;entryDx=0;entryDy=0;endArrow=none;endFill=0;fillColor=#000000;" parent="1" source="GoyC5QAHnLf5jNGfdJ2Q-32" target="GoyC5QAHnLf5jNGfdJ2Q-55" edge="1">
          <mxGeometry relative="1" as="geometry" />
        </mxCell>
        <mxCell id="GoyC5QAHnLf5jNGfdJ2Q-31" style="edgeStyle=orthogonalEdgeStyle;rounded=0;orthogonalLoop=1;jettySize=auto;html=1;exitX=1;exitY=0;exitDx=0;exitDy=0;entryX=0.5;entryY=1;entryDx=0;entryDy=0;endArrow=none;endFill=0;fillColor=#000000;" parent="1" source="GoyC5QAHnLf5jNGfdJ2Q-32" target="GoyC5QAHnLf5jNGfdJ2Q-57" edge="1">
          <mxGeometry relative="1" as="geometry" />
        </mxCell>
        <mxCell id="GoyC5QAHnLf5jNGfdJ2Q-32" value="Piscina" style="whiteSpace=wrap;html=1;align=center;" parent="1" vertex="1">
          <mxGeometry x="510" y="505" width="100" height="40" as="geometry" />
        </mxCell>
        <mxCell id="GoyC5QAHnLf5jNGfdJ2Q-33" value="" style="shape=flexArrow;endArrow=classic;html=1;rounded=0;entryX=0.5;entryY=1;entryDx=0;entryDy=0;fillColor=#000000;" parent="1" edge="1">
          <mxGeometry width="50" height="50" relative="1" as="geometry">
            <mxPoint x="559.4099999999999" y="585" as="sourcePoint" />
            <mxPoint x="559.4099999999999" y="545" as="targetPoint" />
          </mxGeometry>
        </mxCell>
        <mxCell id="GoyC5QAHnLf5jNGfdJ2Q-34" value="" style="endArrow=none;html=1;rounded=0;fillColor=#000000;" parent="1" edge="1">
          <mxGeometry width="50" height="50" relative="1" as="geometry">
            <mxPoint x="470" y="585" as="sourcePoint" />
            <mxPoint x="650" y="585" as="targetPoint" />
          </mxGeometry>
        </mxCell>
        <mxCell id="GoyC5QAHnLf5jNGfdJ2Q-35" style="edgeStyle=orthogonalEdgeStyle;rounded=0;orthogonalLoop=1;jettySize=auto;html=1;exitX=0.5;exitY=0;exitDx=0;exitDy=0;endArrow=none;endFill=0;fillColor=#000000;" parent="1" source="GoyC5QAHnLf5jNGfdJ2Q-38" edge="1">
          <mxGeometry relative="1" as="geometry">
            <mxPoint x="470" y="585" as="targetPoint" />
            <Array as="points">
              <mxPoint x="470" y="605" />
              <mxPoint x="470" y="605" />
            </Array>
          </mxGeometry>
        </mxCell>
        <mxCell id="GoyC5QAHnLf5jNGfdJ2Q-36" style="edgeStyle=orthogonalEdgeStyle;rounded=0;orthogonalLoop=1;jettySize=auto;html=1;exitX=1;exitY=1;exitDx=0;exitDy=0;entryX=0.5;entryY=0;entryDx=0;entryDy=0;endArrow=none;endFill=0;fillColor=#000000;" parent="1" source="GoyC5QAHnLf5jNGfdJ2Q-38" target="GoyC5QAHnLf5jNGfdJ2Q-60" edge="1">
          <mxGeometry relative="1" as="geometry" />
        </mxCell>
        <mxCell id="GoyC5QAHnLf5jNGfdJ2Q-37" style="edgeStyle=orthogonalEdgeStyle;rounded=0;orthogonalLoop=1;jettySize=auto;html=1;exitX=0;exitY=1;exitDx=0;exitDy=0;entryX=0.5;entryY=0;entryDx=0;entryDy=0;endArrow=none;endFill=0;fillColor=#000000;" parent="1" source="GoyC5QAHnLf5jNGfdJ2Q-38" target="GoyC5QAHnLf5jNGfdJ2Q-59" edge="1">
          <mxGeometry relative="1" as="geometry" />
        </mxCell>
        <mxCell id="GoyC5QAHnLf5jNGfdJ2Q-38" value="Con vasca all&#39;aperto" style="whiteSpace=wrap;html=1;align=center;" parent="1" vertex="1">
          <mxGeometry x="420" y="625" width="100" height="40" as="geometry" />
        </mxCell>
        <mxCell id="GoyC5QAHnLf5jNGfdJ2Q-39" style="edgeStyle=orthogonalEdgeStyle;rounded=0;orthogonalLoop=1;jettySize=auto;html=1;exitX=0.5;exitY=0;exitDx=0;exitDy=0;endArrow=none;endFill=0;fillColor=#000000;" parent="1" source="GoyC5QAHnLf5jNGfdJ2Q-40" edge="1">
          <mxGeometry relative="1" as="geometry">
            <mxPoint x="650" y="585" as="targetPoint" />
            <Array as="points">
              <mxPoint x="650" y="585" />
            </Array>
          </mxGeometry>
        </mxCell>
        <mxCell id="GoyC5QAHnLf5jNGfdJ2Q-40" value="Senza vasca all&#39;aperto" style="whiteSpace=wrap;html=1;align=center;" parent="1" vertex="1">
          <mxGeometry x="600" y="625" width="100" height="40" as="geometry" />
        </mxCell>
        <mxCell id="GoyC5QAHnLf5jNGfdJ2Q-41" style="edgeStyle=orthogonalEdgeStyle;rounded=0;orthogonalLoop=1;jettySize=auto;html=1;exitX=0.5;exitY=1;exitDx=0;exitDy=0;entryX=0.5;entryY=0;entryDx=0;entryDy=0;endArrow=none;endFill=0;fillColor=#000000;" parent="1" source="GoyC5QAHnLf5jNGfdJ2Q-43" target="GoyC5QAHnLf5jNGfdJ2Q-32" edge="1">
          <mxGeometry relative="1" as="geometry" />
        </mxCell>
        <mxCell id="GoyC5QAHnLf5jNGfdJ2Q-42" style="edgeStyle=orthogonalEdgeStyle;rounded=0;orthogonalLoop=1;jettySize=auto;html=1;exitX=1;exitY=1;exitDx=0;exitDy=0;entryX=0;entryY=0.5;entryDx=0;entryDy=0;endArrow=none;endFill=0;fillColor=#000000;" parent="1" source="GoyC5QAHnLf5jNGfdJ2Q-43" target="GoyC5QAHnLf5jNGfdJ2Q-47" edge="1">
          <mxGeometry relative="1" as="geometry">
            <Array as="points">
              <mxPoint x="590" y="385" />
            </Array>
          </mxGeometry>
        </mxCell>
        <mxCell id="GoyC5QAHnLf5jNGfdJ2Q-43" value="Ultima visita" style="shape=rhombus;perimeter=rhombusPerimeter;whiteSpace=wrap;html=1;align=center;" parent="1" vertex="1">
          <mxGeometry x="500" y="330" width="120" height="60" as="geometry" />
        </mxCell>
        <mxCell id="GoyC5QAHnLf5jNGfdJ2Q-44" style="edgeStyle=orthogonalEdgeStyle;rounded=0;orthogonalLoop=1;jettySize=auto;html=1;exitX=0.5;exitY=1;exitDx=0;exitDy=0;entryX=0;entryY=0.5;entryDx=0;entryDy=0;endArrow=none;endFill=0;fillColor=#000000;" parent="1" source="GoyC5QAHnLf5jNGfdJ2Q-45" target="GoyC5QAHnLf5jNGfdJ2Q-32" edge="1">
          <mxGeometry relative="1" as="geometry" />
        </mxCell>
        <mxCell id="GoyC5QAHnLf5jNGfdJ2Q-45" value="Accede" style="shape=rhombus;perimeter=rhombusPerimeter;whiteSpace=wrap;html=1;align=center;" parent="1" vertex="1">
          <mxGeometry x="330" y="330" width="120" height="60" as="geometry" />
        </mxCell>
        <mxCell id="GoyC5QAHnLf5jNGfdJ2Q-46" value="(0,n)" style="text;html=1;align=center;verticalAlign=middle;resizable=0;points=[];autosize=1;strokeColor=none;fillColor=none;" parent="1" vertex="1">
          <mxGeometry x="560" y="395" width="40" height="20" as="geometry" />
        </mxCell>
        <mxCell id="GoyC5QAHnLf5jNGfdJ2Q-47" value="" style="ellipse;whiteSpace=wrap;html=1;aspect=fixed;" parent="1" vertex="1">
          <mxGeometry x="620" y="380" width="10" height="10" as="geometry" />
        </mxCell>
        <mxCell id="GoyC5QAHnLf5jNGfdJ2Q-48" value="Data" style="text;html=1;align=center;verticalAlign=middle;resizable=0;points=[];autosize=1;strokeColor=none;fillColor=none;" parent="1" vertex="1">
          <mxGeometry x="630" y="375" width="40" height="20" as="geometry" />
        </mxCell>
        <mxCell id="GoyC5QAHnLf5jNGfdJ2Q-49" value="(0,n)" style="text;html=1;align=center;verticalAlign=middle;resizable=0;points=[];autosize=1;strokeColor=none;fillColor=none;" parent="1" vertex="1">
          <mxGeometry x="470" y="525" width="40" height="20" as="geometry" />
        </mxCell>
        <mxCell id="GoyC5QAHnLf5jNGfdJ2Q-50" value="" style="ellipse;whiteSpace=wrap;html=1;aspect=fixed;" parent="1" vertex="1">
          <mxGeometry x="480" y="470" width="10" height="10" as="geometry" />
        </mxCell>
        <mxCell id="GoyC5QAHnLf5jNGfdJ2Q-51" style="edgeStyle=orthogonalEdgeStyle;rounded=0;orthogonalLoop=1;jettySize=auto;html=1;exitX=0.5;exitY=1;exitDx=0;exitDy=0;entryX=0.953;entryY=0.014;entryDx=0;entryDy=0;entryPerimeter=0;endArrow=none;endFill=0;fillColor=#000000;" parent="1" source="GoyC5QAHnLf5jNGfdJ2Q-52" edge="1">
          <mxGeometry relative="1" as="geometry">
            <mxPoint x="575.3000000000002" y="505.55999999999995" as="targetPoint" />
          </mxGeometry>
        </mxCell>
        <mxCell id="GoyC5QAHnLf5jNGfdJ2Q-52" value="" style="ellipse;whiteSpace=wrap;html=1;aspect=fixed;fillColor=#000000;" parent="1" vertex="1">
          <mxGeometry x="570" y="470" width="10" height="10" as="geometry" />
        </mxCell>
        <mxCell id="GoyC5QAHnLf5jNGfdJ2Q-53" value="Nome_P" style="text;html=1;align=center;verticalAlign=middle;resizable=0;points=[];autosize=1;strokeColor=none;fillColor=none;" parent="1" vertex="1">
          <mxGeometry x="555" y="450" width="60" height="20" as="geometry" />
        </mxCell>
        <mxCell id="GoyC5QAHnLf5jNGfdJ2Q-54" value="Indirizzo" style="text;html=1;align=center;verticalAlign=middle;resizable=0;points=[];autosize=1;strokeColor=none;fillColor=none;" parent="1" vertex="1">
          <mxGeometry x="450" y="450" width="60" height="20" as="geometry" />
        </mxCell>
        <mxCell id="GoyC5QAHnLf5jNGfdJ2Q-55" value="" style="ellipse;whiteSpace=wrap;html=1;aspect=fixed;" parent="1" vertex="1">
          <mxGeometry x="530" y="470" width="10" height="10" as="geometry" />
        </mxCell>
        <mxCell id="GoyC5QAHnLf5jNGfdJ2Q-56" value="Telefono" style="text;html=1;align=center;verticalAlign=middle;resizable=0;points=[];autosize=1;strokeColor=none;fillColor=none;" parent="1" vertex="1">
          <mxGeometry x="500" y="450" width="60" height="20" as="geometry" />
        </mxCell>
        <mxCell id="GoyC5QAHnLf5jNGfdJ2Q-57" value="" style="ellipse;whiteSpace=wrap;html=1;aspect=fixed;" parent="1" vertex="1">
          <mxGeometry x="620" y="470" width="10" height="10" as="geometry" />
        </mxCell>
        <mxCell id="GoyC5QAHnLf5jNGfdJ2Q-58" value="Responsabile" style="text;html=1;align=center;verticalAlign=middle;resizable=0;points=[];autosize=1;strokeColor=none;fillColor=none;" parent="1" vertex="1">
          <mxGeometry x="610" y="450" width="90" height="20" as="geometry" />
        </mxCell>
        <mxCell id="GoyC5QAHnLf5jNGfdJ2Q-59" value="" style="ellipse;whiteSpace=wrap;html=1;aspect=fixed;" parent="1" vertex="1">
          <mxGeometry x="415" y="700" width="10" height="10" as="geometry" />
        </mxCell>
        <mxCell id="GoyC5QAHnLf5jNGfdJ2Q-60" value="" style="ellipse;whiteSpace=wrap;html=1;aspect=fixed;" parent="1" vertex="1">
          <mxGeometry x="515" y="700" width="10" height="10" as="geometry" />
        </mxCell>
        <mxCell id="GoyC5QAHnLf5jNGfdJ2Q-61" value="Inizio_periodo" style="text;html=1;align=center;verticalAlign=middle;resizable=0;points=[];autosize=1;strokeColor=none;fillColor=none;" parent="1" vertex="1">
          <mxGeometry x="380" y="710" width="90" height="20" as="geometry" />
        </mxCell>
        <mxCell id="GoyC5QAHnLf5jNGfdJ2Q-62" value="Fine_periodo" style="text;html=1;align=center;verticalAlign=middle;resizable=0;points=[];autosize=1;strokeColor=none;fillColor=none;" parent="1" vertex="1">
          <mxGeometry x="475" y="710" width="90" height="20" as="geometry" />
        </mxCell>
        <mxCell id="GoyC5QAHnLf5jNGfdJ2Q-63" value="" style="shape=flexArrow;endArrow=classic;html=1;rounded=0;entryX=0.5;entryY=1;entryDx=0;entryDy=0;fillColor=#000000;" parent="1" edge="1">
          <mxGeometry width="50" height="50" relative="1" as="geometry">
            <mxPoint x="559.4099999999999" y="585" as="sourcePoint" />
            <mxPoint x="559.4099999999999" y="545" as="targetPoint" />
          </mxGeometry>
        </mxCell>
        <mxCell id="GoyC5QAHnLf5jNGfdJ2Q-64" value="" style="shape=flexArrow;endArrow=classic;html=1;rounded=0;entryX=0.5;entryY=1;entryDx=0;entryDy=0;fillColor=#000000;" parent="1" edge="1">
          <mxGeometry width="50" height="50" relative="1" as="geometry">
            <mxPoint x="559.4099999999999" y="585" as="sourcePoint" />
            <mxPoint x="559.4099999999999" y="545" as="targetPoint" />
          </mxGeometry>
        </mxCell>
        <mxCell id="GoyC5QAHnLf5jNGfdJ2Q-65" value="" style="endArrow=none;html=1;rounded=0;fillColor=#000000;" parent="1" edge="1">
          <mxGeometry width="50" height="50" relative="1" as="geometry">
            <mxPoint x="470" y="585" as="sourcePoint" />
            <mxPoint x="650" y="585" as="targetPoint" />
          </mxGeometry>
        </mxCell>
        <mxCell id="GoyC5QAHnLf5jNGfdJ2Q-66" value="" style="endArrow=none;html=1;rounded=0;fillColor=#000000;" parent="1" edge="1">
          <mxGeometry width="50" height="50" relative="1" as="geometry">
            <mxPoint x="470" y="585" as="sourcePoint" />
            <mxPoint x="650" y="585" as="targetPoint" />
          </mxGeometry>
        </mxCell>
        <mxCell id="GoyC5QAHnLf5jNGfdJ2Q-67" value="" style="shape=flexArrow;endArrow=classic;html=1;rounded=0;entryX=0.5;entryY=1;entryDx=0;entryDy=0;fillColor=#000000;" parent="1" edge="1">
          <mxGeometry width="50" height="50" relative="1" as="geometry">
            <mxPoint x="559.4099999999999" y="585" as="sourcePoint" />
            <mxPoint x="559.4099999999999" y="545" as="targetPoint" />
          </mxGeometry>
        </mxCell>
        <mxCell id="GoyC5QAHnLf5jNGfdJ2Q-68" style="edgeStyle=orthogonalEdgeStyle;rounded=0;orthogonalLoop=1;jettySize=auto;html=1;exitX=0.5;exitY=0;exitDx=0;exitDy=0;endArrow=none;endFill=0;fillColor=#000000;" parent="1" edge="1">
          <mxGeometry relative="1" as="geometry">
            <mxPoint x="650" y="585" as="targetPoint" />
            <mxPoint x="650" y="625" as="sourcePoint" />
            <Array as="points">
              <mxPoint x="650" y="585" />
            </Array>
          </mxGeometry>
        </mxCell>
        <mxCell id="GoyC5QAHnLf5jNGfdJ2Q-69" value="" style="endArrow=none;html=1;rounded=0;fillColor=#000000;" parent="1" edge="1">
          <mxGeometry width="50" height="50" relative="1" as="geometry">
            <mxPoint x="470" y="585" as="sourcePoint" />
            <mxPoint x="650" y="585" as="targetPoint" />
          </mxGeometry>
        </mxCell>
        <mxCell id="GoyC5QAHnLf5jNGfdJ2Q-70" value="" style="shape=flexArrow;endArrow=classic;html=1;rounded=0;fillColor=#000000;" parent="1" target="GoyC5QAHnLf5jNGfdJ2Q-32" edge="1">
          <mxGeometry width="50" height="50" relative="1" as="geometry">
            <mxPoint x="559.4099999999999" y="585" as="sourcePoint" />
            <mxPoint x="559.4099999999999" y="545" as="targetPoint" />
          </mxGeometry>
        </mxCell>
        <mxCell id="GoyC5QAHnLf5jNGfdJ2Q-71" style="edgeStyle=orthogonalEdgeStyle;rounded=0;orthogonalLoop=1;jettySize=auto;html=1;exitX=0.5;exitY=0;exitDx=0;exitDy=0;endArrow=none;endFill=0;fillColor=#000000;" parent="1" edge="1">
          <mxGeometry relative="1" as="geometry">
            <mxPoint x="650" y="585" as="targetPoint" />
            <mxPoint x="650" y="625" as="sourcePoint" />
            <Array as="points">
              <mxPoint x="650" y="585" />
            </Array>
          </mxGeometry>
        </mxCell>
        <mxCell id="GoyC5QAHnLf5jNGfdJ2Q-72" value="(0,n)" style="text;html=1;align=center;verticalAlign=middle;resizable=0;points=[];autosize=1;strokeColor=none;fillColor=none;" parent="1" vertex="1">
          <mxGeometry x="610" y="540" width="40" height="20" as="geometry" />
        </mxCell>
        <mxCell id="GoyC5QAHnLf5jNGfdJ2Q-75" value="(1,1)" style="text;html=1;align=center;verticalAlign=middle;resizable=0;points=[];autosize=1;strokeColor=none;fillColor=none;" parent="1" vertex="1">
          <mxGeometry x="560" y="300" width="40" height="20" as="geometry" />
        </mxCell>
        <mxCell id="GoyC5QAHnLf5jNGfdJ2Q-76" value="(0,n)" style="text;html=1;align=center;verticalAlign=middle;resizable=0;points=[];autosize=1;strokeColor=none;fillColor=none;" parent="1" vertex="1">
          <mxGeometry x="540" y="130" width="40" height="20" as="geometry" />
        </mxCell>
      </root>
    </mxGraphModel>
  </diagram>
</mxfile>
